<svg width="1468" height="997" viewBox="0 0 1468 997" fill="none" xmlns="http://www.w3.org/2000/svg">
<style>
    #cloud-left {
        animation: MoveLeftCloud 5s linear infinite;
        transform-box: fill-box;
    }
    
    @keyframes MoveLeftCloud {
        0% {
            transform: translateX(20%);
        }
        25% {
            transform: translateX(0%);
        }
        50% {
            transform: translateX(-20%);
        }
        100% {
            transform: translateX(20%);
        }
    }
    
    #cloud-right {
        animation: MoveRightCloud 5s linear infinite;
        transform-box: fill-box;
    }
    
    @keyframes MoveRightCloud {
        0% {
            transform: translateX(-20%);
        }
        25% {
            transform: translateX(0%);
        }
        50% {
            transform: translateX(20%);
        }
        100% {
            transform: translateX(-20%);
        }
    }
    
    #plant-left {
        transform-origin: center;
        transform-box: fill-box;
        animation: TiltLeftLeaves 3s ease-in-out infinite;
    }
    
    @keyframes TiltLeftLeaves {
        0% {
            transform: rotate(0deg);
        }
        50% {
            transform: rotate(-1deg);
        }
        100% {
            transform: rotate(0deg);
        }
    }

    #plant-right {
        transform-origin: center;
        transform-box: fill-box;
        animation: TiltRightLeaves 3s ease-in-out infinite;
    }
    
    @keyframes TiltRightLeaves {
        0% {
            transform: rotate(0deg);
        }
        50% {
            transform: rotate(10deg);
        }
        100% {
            transform: rotate(0deg);
        }
    }
</style>
<g id="hobbies-graphic">
<g id="music" clip-path="url(#clip0)">
<path id="piano-background" opacity="0.1" d="M1107.07 862.82C1096.99 905.82 1077.18 949.82 1041.21 974.34C1039.9 975.25 1038.55 976.12 1037.21 976.97C1035.21 978.19 1033.21 979.37 1031.21 980.48C1030.69 980.77 1030.21 981.04 1029.65 981.31C1025.27 983.569 1020.75 985.534 1016.11 987.19C981.811 999.56 942.43 995.53 907 984.95C900.36 982.95 893.781 980.78 887.271 978.43C882.101 976.58 876.97 974.63 871.85 972.63H871.73C870.92 972.32 870.1 972 869.3 971.63L866.641 970.63C861.921 968.75 857.21 966.837 852.51 964.89C846.97 962.62 841.44 960.33 835.91 958.07C820 951.57 804.011 945.31 787.581 940.28C780.751 938.19 773.84 936.28 766.9 934.62C746.19 929.55 725.11 926.03 704.01 922.74L693.081 921.06C681.981 919.35 670.81 917.65 659.62 916.19C647.98 914.67 636.31 913.41 624.62 912.71C602.62 911.36 580.62 911.94 559.04 916.28C542.64 919.58 526.66 925 510.88 931.28C460.12 951.46 411.45 980.36 357.88 975.48C331.18 973.05 306.05 962.21 281.71 950.98C246.78 934.88 211.93 917.42 181.49 894.33C172.898 887.852 164.697 880.869 156.93 873.42C156.71 873.23 156.5 873.02 156.29 872.82L156.11 872.64L155.87 872.41L155.48 872.03C149.74 866.43 144.29 860.56 139.07 854.48L134.37 848.88C126.83 839.68 119.79 830.05 113.08 820.18L110.93 817.06L109.7 815.22C105.514 808.9 101.427 802.503 97.4405 796.03C91.3005 786.1 85.3405 776.03 79.4405 766.03C69.3505 749.03 59.0705 731.47 55.5905 712.03C53.5668 700.386 53.784 688.463 56.2305 676.9C57.1419 672.462 58.2902 668.076 59.6705 663.76C59.8805 663.13 60.0705 662.52 60.2905 661.9C62.6321 655.006 65.3905 648.26 68.5505 641.7C90.2805 595.95 128.93 552.12 127.55 501.55C126.46 462.55 101.66 428.98 82.8605 394.8C64.0605 360.62 51.1805 316.58 72.8605 284.13C91.2005 256.59 127.35 248.13 160.17 243.92C193.581 239.552 227.236 237.327 260.93 237.26C286.46 237.17 310.71 243.03 335.73 243.86C366.35 244.86 400.28 230.63 429.73 223.24C463.864 214.693 497.957 206.153 532.01 197.62C590.23 183.04 649.12 168.42 709.13 168C769.14 167.58 831.32 183 876.75 222.21C892.31 235.66 905.921 252.16 912.201 271.75C925.261 312.5 904.651 358.22 917.201 399.12C928.051 434.35 960.511 457.46 987.891 482.12C1091.52 575.57 1138.93 727.01 1107.07 862.82Z" fill="#242835"/>
<g id="plants">
<g id="plant-right">
<path id="Vector" d="M192.23 700.59C192.23 700.59 159.37 632.25 175.85 575.31C182.92 551.471 182.064 525.981 173.41 502.67C169.23 491.636 164.048 481.009 157.93 470.92" stroke="#535461" stroke-width="2" stroke-miterlimit="10"/>
<g id="plant-right-leavesRight">
<path id="Vector_2" d="M202.35 479.42C198.78 487.59 173.62 504.8 173.62 504.8C173.62 504.8 169.2 474.64 172.78 466.47C174.497 462.549 177.702 459.47 181.689 457.912C185.676 456.354 190.119 456.443 194.04 458.16C197.961 459.877 201.04 463.082 202.598 467.069C204.157 471.056 204.067 475.499 202.35 479.42V479.42Z" fill="#8C1C13"/>
<path id="Vector_3" d="M214.8 562.89C207.59 568.13 177.18 570.29 177.18 570.29C177.18 570.29 188.6 542.02 195.81 536.78C199.272 534.26 203.594 533.22 207.823 533.886C212.053 534.553 215.845 536.873 218.365 540.335C220.884 543.797 221.925 548.119 221.258 552.349C220.592 556.579 218.272 560.37 214.81 562.89H214.8Z" fill="#8C1C13"/>
<path id="Vector_4" d="M209.99 628.17C203.77 634.56 174.17 641.81 174.17 641.81C174.17 641.81 180.64 612.03 186.86 605.64C188.339 604.121 190.103 602.909 192.051 602.072C193.999 601.235 196.093 600.79 198.213 600.762C200.333 600.734 202.437 601.124 204.407 601.909C206.376 602.695 208.171 603.861 209.69 605.34C211.209 606.819 212.421 608.583 213.258 610.531C214.095 612.479 214.54 614.573 214.568 616.693C214.596 618.813 214.206 620.918 213.421 622.887C212.635 624.856 211.469 626.651 209.99 628.17V628.17Z" fill="#8C1C13"/>
<path id="Vector_5" opacity="0.25" d="M202.35 479.42C198.78 487.59 173.62 504.8 173.62 504.8C173.62 504.8 169.2 474.64 172.78 466.47C174.497 462.549 177.702 459.47 181.689 457.912C185.676 456.354 190.119 456.443 194.04 458.16C197.961 459.877 201.04 463.082 202.598 467.069C204.157 471.056 204.067 475.499 202.35 479.42V479.42Z" fill="black"/>
<path id="Vector_6" opacity="0.25" d="M214.8 562.89C207.59 568.13 177.18 570.29 177.18 570.29C177.18 570.29 188.6 542.02 195.81 536.78C199.272 534.26 203.594 533.22 207.823 533.886C212.053 534.553 215.845 536.873 218.365 540.335C220.884 543.797 221.925 548.119 221.258 552.349C220.592 556.579 218.272 560.37 214.81 562.89H214.8Z" fill="black"/>
<path id="Vector_7" opacity="0.25" d="M209.99 628.17C203.77 634.56 174.17 641.81 174.17 641.81C174.17 641.81 180.64 612.03 186.86 605.64C188.339 604.121 190.103 602.909 192.051 602.072C193.999 601.235 196.093 600.79 198.213 600.762C200.333 600.734 202.437 601.124 204.407 601.909C206.376 602.695 208.171 603.861 209.69 605.34C211.209 606.819 212.421 608.583 213.258 610.531C214.095 612.479 214.54 614.573 214.568 616.693C214.596 618.813 214.206 620.918 213.421 622.887C212.635 624.856 211.469 626.651 209.99 628.17V628.17Z" fill="black"/>
</g>
<g id="plant-right-leavesLeft">
<path id="Vector_8" d="M135.79 588.42C144.29 591.1 173.79 583.47 173.79 583.47C173.79 583.47 153.99 560.3 145.48 557.62C141.428 556.446 137.078 556.905 133.36 558.897C129.641 560.889 126.85 564.257 125.583 568.281C124.316 572.305 124.673 576.664 126.579 580.428C128.484 584.191 131.787 587.06 135.78 588.42H135.79Z" fill="#8C1C13"/>
<path id="Vector_9" opacity="0.25" d="M168.06 434.97C169.5 443.77 157.73 471.89 157.73 471.89C157.73 471.89 137.64 448.97 136.2 440.17C135.511 435.945 136.528 431.619 139.027 428.144C141.527 424.669 145.305 422.33 149.53 421.64C153.755 420.95 158.081 421.967 161.556 424.467C165.031 426.967 167.371 430.745 168.06 434.97V434.97Z" fill="black"/>
<path id="Vector_10" d="M140.44 511.95C147.76 517.05 178.2 518.6 178.2 518.6C178.2 518.6 166.2 490.6 158.92 485.47C157.184 484.196 155.211 483.282 153.116 482.782C151.022 482.282 148.849 482.206 146.725 482.558C144.601 482.91 142.568 483.683 140.747 484.832C138.926 485.981 137.353 487.482 136.121 489.248C134.889 491.013 134.022 493.008 133.572 495.113C133.122 497.219 133.097 499.393 133.499 501.508C133.902 503.624 134.723 505.637 135.915 507.43C137.107 509.223 138.645 510.76 140.44 511.95V511.95Z" fill="#8C1C13"/>
<path id="Vector_11" opacity="0.25" d="M140.44 511.95C147.76 517.05 178.2 518.6 178.2 518.6C178.2 518.6 166.2 490.6 158.92 485.47C157.184 484.196 155.211 483.282 153.116 482.782C151.022 482.282 148.849 482.206 146.725 482.558C144.601 482.91 142.568 483.683 140.747 484.832C138.926 485.981 137.353 487.482 136.121 489.248C134.889 491.013 134.022 493.008 133.572 495.113C133.122 497.219 133.097 499.393 133.499 501.508C133.902 503.624 134.723 505.637 135.915 507.43C137.107 509.223 138.645 510.76 140.44 511.95V511.95Z" fill="black"/>
<path id="Vector_12" opacity="0.25" d="M135.79 588.42C144.29 591.1 173.79 583.47 173.79 583.47C173.79 583.47 153.99 560.3 145.48 557.62C141.428 556.446 137.078 556.905 133.36 558.897C129.641 560.889 126.85 564.257 125.583 568.281C124.316 572.305 124.673 576.664 126.579 580.428C128.484 584.191 131.787 587.06 135.78 588.42H135.79Z" fill="black"/>
</g>
<path id="plant-right-topLeaf" d="M168.06 434.97C169.5 443.77 157.73 471.89 157.73 471.89C157.73 471.89 137.64 448.97 136.2 440.17C135.511 435.945 136.528 431.619 139.027 428.144C141.527 424.669 145.305 422.33 149.53 421.64C153.755 420.95 158.081 421.967 161.556 424.467C165.031 426.967 167.371 430.745 168.06 434.97V434.97Z" fill="#8C1C13"/>
</g>
<g id="plant-left">
<path id="Vector_13" d="M192.38 698.08C192.38 698.08 134.64 648.92 126.64 590.18C123.426 565.517 112.299 542.561 94.9297 524.76C86.642 516.376 77.6043 508.767 67.9297 502.03" stroke="#535461" stroke-width="2" stroke-miterlimit="10"/>
<g id="plant-left-leavesRight">
<path id="Vector_14" d="M112.01 491.77C112.01 500.69 96.01 526.61 96.01 526.61C96.01 526.61 79.75 500.83 79.71 491.92C79.6473 489.767 80.016 487.623 80.7944 485.614C81.5728 483.606 82.7451 481.773 84.2423 480.225C85.7396 478.676 87.5315 477.443 89.5126 476.597C91.4938 475.751 93.6241 475.31 95.7781 475.3C97.9322 475.29 100.066 475.711 102.055 476.539C104.044 477.366 105.848 478.583 107.359 480.117C108.871 481.652 110.06 483.474 110.857 485.475C111.654 487.476 112.043 489.616 112 491.77H112.01Z" fill="#8C1C13"/>
<path id="Vector_15" d="M157.21 563.05C152.74 570.76 125.82 585.05 125.82 585.05C125.82 585.05 124.82 554.59 129.27 546.87C131.415 543.165 134.945 540.464 139.082 539.361C143.219 538.259 147.625 538.844 151.33 540.99C155.035 543.136 157.736 546.665 158.839 550.802C159.941 554.939 159.355 559.345 157.21 563.05V563.05Z" fill="#8C1C13"/>
<path id="Vector_16" d="M179.27 624.68C176.17 633.03 152.05 651.68 152.05 651.68C152.05 651.68 145.93 621.81 148.99 613.42C150.53 609.474 153.558 606.291 157.423 604.557C161.288 602.823 165.679 602.676 169.65 604.149C173.622 605.622 176.856 608.596 178.655 612.431C180.454 616.266 180.675 620.654 179.27 624.65V624.68Z" fill="#8C1C13"/>
</g>
<g id="plant-left-leavesLeft">
<path id="Vector_17" d="M68.5898 546.61C77.3498 548.31 105.8 537.39 105.8 537.39C105.8 537.39 83.4998 516.61 74.7498 514.91C70.5866 514.191 66.3073 515.132 62.8297 517.531C59.3521 519.93 56.9531 523.596 56.1472 527.744C55.3413 531.891 56.1926 536.189 58.5187 539.716C60.8447 543.243 64.4602 545.718 68.5898 546.61V546.61Z" fill="#8C1C13"/>
<path id="Vector_18" d="M95.3001 618.35C104.16 617.35 128.05 598.43 128.05 598.43C128.05 598.43 100.56 585.27 91.7001 586.27C89.5937 586.506 87.5545 587.155 85.6989 588.18C83.8433 589.204 82.2076 590.584 80.8853 592.241C78.2148 595.586 76.9827 599.856 77.4601 604.11C77.6965 606.216 78.3454 608.256 79.3699 610.111C80.3944 611.967 81.7743 613.603 83.4309 614.925C86.7766 617.595 91.046 618.827 95.3001 618.35V618.35Z" fill="#8C1C13"/>
<path id="Vector_19" d="M130.83 684.53C139.73 685.04 166.48 670.42 166.48 670.42C166.48 670.42 141.6 652.81 132.7 652.29C128.473 652.125 124.35 653.625 121.218 656.468C118.085 659.311 116.193 663.27 115.948 667.493C115.703 671.716 117.125 675.866 119.908 679.052C122.691 682.238 126.612 684.205 130.83 684.53Z" fill="#8C1C13"/>
</g>
<path id="plant-left-topLeaf" d="M62.6502 465.04C67.5302 472.5 68.1602 502.98 68.1602 502.98C68.1602 502.98 40.5102 490.17 35.6302 482.71C34.4007 480.938 33.5387 478.938 33.0952 476.828C32.6516 474.718 32.6354 472.54 33.0476 470.423C33.4597 468.306 34.2919 466.294 35.4949 464.504C36.6979 462.714 38.2474 461.184 40.0517 460.003C41.8561 458.822 43.8789 458.015 46.0005 457.629C48.1221 457.243 50.2995 457.286 52.4043 457.755C54.509 458.225 56.4983 459.111 58.2546 460.363C60.011 461.614 61.4988 463.204 62.6302 465.04H62.6502Z" fill="#8C1C13"/>
</g>
</g>
<g id="piano">
<path id="Vector_20" d="M650.31 779.66L784.74 811.13L790.18 893.73L631.68 894.35L650.31 779.66Z" fill="#2D3142"/>
<path id="Vector_21" d="M753.06 634.87L656.24 691.16L679.82 761.42L685.18 852.12L755.12 837.16L790.18 765.25L821.45 721.46L792.7 668.44L753.06 634.87Z" fill="#2D3142"/>
<path id="Vector_22" d="M703.93 880.05V922.71L693 921.03C681.9 919.32 670.73 917.62 659.54 916.16L658.271 895.58L658.17 893.73L656.73 870.42L699.54 879.13L700.78 879.38L703.93 880.05Z" fill="#2D3142"/>
<path id="Vector_23" opacity="0.1" d="M703.93 880.05V922.71L693 921.03C681.9 919.32 670.73 917.62 659.54 916.16L658.271 895.58L658.17 893.73L656.73 870.42L699.54 879.13L700.78 879.38L703.93 880.05Z" fill="black"/>
<path id="Vector_24" d="M651.12 876.04L638.29 893.73L636.93 895.58L634.68 898.69L624.53 912.69C602.53 911.34 580.53 911.92 558.95 916.26C542.55 919.56 526.57 924.98 510.79 931.26C504.23 920.99 494.14 908.48 479.72 898.71C478.15 897.64 476.52 896.61 474.84 895.6C473.77 894.97 472.69 894.35 471.58 893.75C464.758 890.059 457.497 887.243 449.97 885.37L651.12 876.04Z" fill="#2D3142"/>
<path id="Vector_25" d="M139.02 854.42L163.49 819.55L165.63 816.55L166.91 814.72L178.09 798.78H177.74C173.74 798.6 136.99 797.11 97.46 796.07C101.46 802.53 105.547 808.927 109.72 815.26L110.95 817.1L113.03 820.18C119.74 830.05 126.78 839.68 134.32 848.88L139.02 854.42Z" fill="#2D3142"/>
<path id="Vector_26" d="M753.56 634.86L742.73 641.76L718.38 657.29L679.17 682.29L676.27 684.13L677.2 713.06L504.93 721.42H314.98L263.74 708.61L262.67 708.34L261.6 708.07L251.47 705.53L206.93 694.42L56.21 676.87C57.1214 672.432 58.2697 668.046 59.65 663.73C59.86 663.1 60.05 662.49 60.27 661.87C62.6116 654.976 65.37 648.23 68.53 641.67C147.92 636.1 239.35 635.08 263.34 634.91L269.34 634.86H753.56Z" fill="#2D3142"/>
<path id="Vector_27" opacity="0.1" d="M651.13 876.04L449.99 885.34C460.62 888 470.695 892.52 479.75 898.69H634.75L651.13 876.04Z" fill="black"/>
<path id="Vector_28" opacity="0.1" d="M178.09 798.75L166.93 814.69L165.65 816.52L163.51 819.52H162.28H159.55L113.05 820.08L110.93 817.06L109.7 815.22C105.514 808.9 101.427 802.503 97.4404 796.03C136.97 797.03 173.75 798.56 177.72 798.74L178.09 798.75Z" fill="black"/>
<path id="Vector_29" d="M699.54 684.21V895.58H439.75L436.03 860.2C436.03 860.2 404.89 858.4 369.03 852.58C366.97 852.23 364.89 851.89 362.79 851.52C354.25 850.04 345.53 848.33 336.98 846.35L335.27 845.95C332.07 845.203 328.907 844.413 325.78 843.58C322.71 842.78 319.69 841.92 316.73 841.04C312.52 839.77 308.45 838.44 304.54 837.04C291.01 832.14 279.54 826.27 272.13 819.25L266.6 819.11L204.79 817.55H203.67H203.32H202.2L165.63 816.61L162.26 816.53L110.99 817.15L109.76 815.31C105.573 808.99 101.487 802.593 97.5 796.12C91.36 786.19 85.4 776.12 79.5 766.12C69.41 749.12 59.13 731.56 55.65 712.12C53.6264 700.476 53.8436 688.553 56.29 676.99C57.2015 672.552 58.3498 668.166 59.73 663.85H263.76L265 664.22L271.77 666.22L272.84 666.54L273.91 666.86C292.36 672.36 330.32 683.33 340.08 683.33H357.18L445.72 683.55L527.63 683.78C586.95 683.92 645.11 684.08 676.24 684.16L699.54 684.21Z" fill="#2D3142"/>
<path id="Vector_30" opacity="0.1" d="M699.54 682.36V893.73H439.75L436.03 858.35C436.03 858.35 405.03 856.55 369.25 850.75C368.06 850.54 366.85 850.35 365.64 850.15C356.78 848.64 347.64 846.9 338.74 844.89L337.51 844.61L336.7 844.42L334.53 843.9C331.59 843.22 328.67 842.49 325.79 841.72C322.63 840.893 319.523 840.017 316.47 839.09C312.2 837.82 308.07 836.45 304.11 835.01C290.77 830.14 279.47 824.32 272.11 817.38L269.61 817.31L206.37 815.71H205.27H204.93H203.82L166.92 814.71L163.82 814.63H162.27L109.73 815.27C105.543 808.95 101.456 802.553 97.4698 796.08C91.3298 786.15 85.3698 776.08 79.4698 766.08C69.3798 749.08 59.0998 731.52 55.6198 712.08C53.5961 700.436 53.8133 688.513 56.2598 676.95C57.1712 672.512 58.3195 668.126 59.6998 663.81C59.9098 663.18 60.0998 662.57 60.3198 661.95H263.76L265.2 662.4C266.63 662.83 269.05 663.57 272.2 664.5L273.26 664.82C273.6 664.92 273.95 665.04 274.32 665.14C292.93 670.61 330.42 681.42 340.11 681.42H358.11L447.63 681.65L529.32 681.86L679.15 682.26L699.54 682.36Z" fill="black"/>
<path id="Vector_31" opacity="0.1" d="M699.54 684.21V895.58H439.75L436.03 860.2C436.03 860.2 404.89 858.4 369.03 852.58C366.97 852.23 364.89 851.89 362.79 851.52C354.25 850.04 345.53 848.33 336.98 846.35L335.27 845.95C332.07 845.203 328.907 844.413 325.78 843.58C322.71 842.78 319.69 841.92 316.73 841.04C312.52 839.77 308.45 838.44 304.54 837.04C291.01 832.14 279.54 826.27 272.13 819.25L266.6 819.11L204.79 817.55H203.67H203.32H202.2L165.63 816.61L162.26 816.53L110.99 817.15L109.76 815.31C105.573 808.99 101.487 802.593 97.5 796.12C91.36 786.19 85.4 776.12 79.5 766.12C69.41 749.12 59.13 731.56 55.65 712.12C53.6264 700.476 53.8436 688.553 56.29 676.99C57.2015 672.552 58.3498 668.166 59.73 663.85H263.76L265 664.22L271.77 666.22L272.84 666.54L273.91 666.86C292.36 672.36 330.32 683.33 340.08 683.33H357.18L445.72 683.55L527.63 683.78C586.95 683.92 645.11 684.08 676.24 684.16L699.54 684.21Z" fill="black"/>
<path id="Vector_32" d="M753.56 634.87V668.35L699.549 708.7L676.27 684.15L753.56 634.87Z" fill="#2D3142"/>
<path id="Vector_33" opacity="0.1" d="M753.56 634.87V668.35L699.549 708.7L676.27 684.15L753.56 634.87Z" fill="black"/>
<path id="Vector_34" d="M781.51 671.78L753.56 668.35L699.55 708.7V729.81L781.51 671.78Z" fill="#2D3142"/>
<path id="Vector_35" d="M793.31 634.87V704.98L811.31 724.84L699.55 832.74V729.81L781.51 671.78L753.56 668.35V634.87H793.31Z" fill="#2D3142"/>
<path id="Vector_36" opacity="0.1" d="M793.31 634.87V704.98L811.31 724.84L699.55 832.74V729.81L781.51 671.78L753.56 668.35V634.87H793.31Z" fill="black"/>
<path id="Vector_37" opacity="0.1" d="M800.14 725.46L873.39 721.46L867.8 779.66L782.75 893L785.24 811.13H720.06L800.14 725.46Z" fill="black"/>
<path id="Vector_38" d="M802 725.46L875.25 721.46L869.67 779.66L784.62 893L787.1 811.13H721.93L802 725.46Z" fill="#2D3142"/>
<path id="Vector_39" opacity="0.1" d="M849.8 758.99H812.55L765.37 811.13H788.34L787.84 827.84L849.8 758.99Z" fill="black"/>
<path id="Vector_40" opacity="0.1" d="M847.32 758.99H810.07L762.89 811.13H785.86L785.35 827.84L847.32 758.99Z" fill="black"/>
<path id="Vector_41" d="M848.56 758.99H811.31L764.13 811.13H787.1L786.59 827.84L848.56 758.99Z" fill="#DCE6F2"/>
<path id="Vector_42" opacity="0.1" d="M785.86 891.76L700.79 894.35V831.5L723.17 809.89H788.34L785.86 891.76Z" fill="black"/>
<path id="Vector_43" d="M784.62 893L699.55 895.59V832.74L721.93 811.13H787.1L784.62 893Z" fill="#2D3142"/>
<path id="Vector_44" opacity="0.1" d="M784.62 893L699.55 895.59V832.74L721.93 811.13H787.1L784.62 893Z" fill="black"/>
<path id="Vector_45" opacity="0.1" d="M806.02 765.25L841.919 766.78" stroke="black" stroke-miterlimit="10"/>
<path id="Vector_46" opacity="0.1" d="M800.18 771.66L836.08 773.19" stroke="black" stroke-miterlimit="10"/>
<path id="Vector_47" opacity="0.1" d="M794.34 778.06L830.24 779.59" stroke="black" stroke-miterlimit="10"/>
<path id="Vector_48" opacity="0.1" d="M788.49 784.47L824.39 786" stroke="black" stroke-miterlimit="10"/>
<path id="Vector_49" opacity="0.1" d="M782.65 790.87L818.55 792.41" stroke="black" stroke-miterlimit="10"/>
<path id="Vector_50" opacity="0.1" d="M776.81 797.28L812.71 798.81" stroke="black" stroke-miterlimit="10"/>
<path id="Vector_51" opacity="0.1" d="M770.96 803.69L806.86 805.22" stroke="black" stroke-miterlimit="10"/>
<path id="Vector_52" opacity="0.1" d="M765.12 810.09L801.02 811.62" stroke="black" stroke-miterlimit="10"/>
</g>
</g>
<g id="photography">
<g id="polaroid-bg">
<path id="Vector_53" d="M1233.37 591.962C1228.32 591.958 1223.35 590.702 1218.93 588.309L808.02 367.406C801.002 363.623 795.798 357.258 793.548 349.708C791.298 342.158 792.187 334.039 796.019 327.132L969.424 15.45C971.327 12.0309 973.895 9.0136 976.984 6.57037C980.072 4.12714 983.62 2.30582 987.424 1.2104C991.229 0.114978 995.216 -0.233088 999.157 0.186075C1003.1 0.605238 1006.92 1.78342 1010.4 3.65335L1421.3 224.557C1428.32 228.339 1433.52 234.704 1435.77 242.254C1438.02 249.805 1437.14 257.924 1433.3 264.831L1259.9 576.513C1258 579.938 1255.44 582.961 1252.35 585.405C1249.26 587.849 1245.71 589.667 1241.9 590.752C1239.13 591.553 1236.26 591.96 1233.37 591.962ZM1221.41 583.847C1227.23 586.975 1234.08 587.703 1240.44 585.87C1246.81 584.037 1252.17 579.793 1255.36 574.072L1428.76 262.39C1431.94 256.667 1432.67 249.94 1430.81 243.684C1428.95 237.428 1424.63 232.154 1418.82 229.02L1007.91 8.11615C1002.09 4.98734 995.245 4.25943 988.879 6.09252C982.513 7.92561 977.148 12.1696 973.965 17.8908L800.559 329.573C797.384 335.296 796.648 342.023 798.512 348.279C800.376 354.535 804.688 359.809 810.503 362.943L1221.41 583.847Z" fill="#F2F2F2"/>
<path id="Vector_54" d="M1241.84 482.954C1237.11 482.951 1232.46 481.78 1228.32 479.549L896.109 300.955C892.877 299.221 890.024 296.878 887.714 294.059C885.405 291.24 883.683 288.002 882.648 284.528C881.613 281.054 881.285 277.414 881.682 273.816C882.08 270.218 883.196 266.732 884.966 263.558L988.529 77.4115C990.295 74.2365 992.68 71.4345 995.548 69.1656C998.415 66.8967 1001.71 65.2054 1005.24 64.1882C1008.78 63.171 1012.48 62.8478 1016.14 63.2372C1019.8 63.6265 1023.34 64.7208 1026.57 66.4574L1358.78 245.051C1362.01 246.787 1364.86 249.132 1367.17 251.951C1369.48 254.77 1371.2 258.008 1372.23 261.481C1373.27 264.954 1373.59 268.593 1373.2 272.19C1372.8 275.788 1371.69 279.274 1369.92 282.448L1369.54 282.245L1369.92 282.448L1266.36 468.595C1263.97 472.935 1260.42 476.56 1256.11 479.087C1251.79 481.615 1246.86 482.951 1241.84 482.954V482.954Z" fill="#F2F2F2"/>
</g>
<g id="polaroid-fg">
<path id="Vector_55" d="M1231.53 591.88H763.188C755.756 591.872 748.631 588.966 743.376 583.8C738.121 578.635 735.165 571.631 735.156 564.325V209.077C735.165 201.771 738.121 194.767 743.376 189.602C748.631 184.436 755.756 181.53 763.188 181.522H1231.53C1238.96 181.53 1246.09 184.436 1251.34 189.602C1256.6 194.767 1259.55 201.771 1259.56 209.077V564.325C1259.55 571.631 1256.6 578.635 1251.34 583.8C1246.09 588.966 1238.96 591.872 1231.53 591.88V591.88Z" fill="white"/>
<path id="Vector_56" d="M1231.53 594H763.188C755.184 593.991 747.511 590.862 741.852 585.299C736.192 579.736 733.009 572.193 733 564.325V209.077C733.009 201.209 736.192 193.667 741.852 188.103C747.511 182.54 755.184 179.411 763.188 179.402H1231.53C1239.53 179.411 1247.21 182.54 1252.87 188.103C1258.53 193.667 1261.71 201.209 1261.72 209.077V564.325C1261.71 572.193 1258.53 579.736 1252.87 585.299C1247.21 590.862 1239.53 593.991 1231.53 594ZM763.188 184.489C756.556 184.497 750.199 187.089 745.509 191.699C740.82 196.308 738.183 202.558 738.175 209.077V564.325C738.183 570.844 740.82 577.094 745.509 581.703C750.199 586.313 756.556 588.906 763.188 588.913H1231.53C1238.16 588.906 1244.52 586.313 1249.21 581.703C1253.9 577.094 1256.54 570.844 1256.54 564.325V209.077C1256.54 202.558 1253.9 196.308 1249.21 191.699C1244.52 187.089 1238.16 184.497 1231.53 184.489H763.188Z" fill="#E6E6E6"/>
<path id="Vector_57" d="M860.821 433.859C892.144 433.859 917.537 408.898 917.537 378.107C917.537 347.316 892.144 322.355 860.821 322.355C829.497 322.355 804.104 347.316 804.104 378.107C804.104 408.898 829.497 433.859 860.821 433.859Z" fill="#8C1C13"/>
<path id="Vector_58" d="M1193.03 493.004C1190.95 493.486 1188.82 493.728 1186.68 493.725H808.039C803.375 493.733 798.787 492.575 794.704 490.359L795.713 488.935L837.959 429.136L900.56 340.544L901.474 339.247L911.324 325.308C911.986 324.37 912.869 323.604 913.898 323.075C914.927 322.545 916.071 322.269 917.232 322.269C918.394 322.269 919.538 322.545 920.567 323.075C921.595 323.604 922.479 324.37 923.141 325.308L955.864 371.609V371.618L975.115 398.868L1021.07 463.898L1090.77 366.098C1091.43 365.166 1092.32 364.404 1093.34 363.878C1094.37 363.352 1095.51 363.078 1096.67 363.078C1097.83 363.078 1098.97 363.352 1099.99 363.878C1101.02 364.404 1101.9 365.166 1102.57 366.098L1147.28 428.831L1149.85 432.434L1193.03 493.004Z" fill="#2D3142"/>
<path id="Vector_59" d="M1186.68 494.573H808.038C804.299 494.576 800.597 493.855 797.142 492.45C793.687 491.045 790.548 488.984 787.904 486.385C785.261 483.787 783.164 480.701 781.735 477.305C780.306 473.909 779.572 470.269 779.575 466.594V254.428C779.584 247.011 782.585 239.899 787.921 234.654C793.257 229.408 800.492 226.458 808.038 226.449H1186.68C1194.23 226.458 1201.46 229.408 1206.8 234.654C1212.13 239.899 1215.13 247.011 1215.14 254.428V466.594C1215.15 470.269 1214.41 473.909 1212.98 477.306C1211.56 480.702 1209.46 483.788 1206.82 486.387C1204.17 488.986 1201.03 491.047 1197.58 492.452C1194.12 493.856 1190.42 494.577 1186.68 494.573V494.573ZM808.038 228.145C800.949 228.153 794.153 230.925 789.14 235.852C784.128 240.779 781.308 247.46 781.3 254.428V466.594C781.297 470.046 781.986 473.466 783.329 476.656C784.671 479.846 786.641 482.745 789.124 485.186C791.608 487.627 794.557 489.563 797.802 490.883C801.047 492.203 804.526 492.88 808.038 492.877H1186.68C1190.19 492.881 1193.67 492.204 1196.92 490.885C1200.16 489.565 1203.11 487.629 1205.6 485.188C1208.08 482.747 1210.05 479.847 1211.39 476.657C1212.73 473.466 1213.42 470.047 1213.42 466.594V254.428C1213.41 247.46 1210.59 240.779 1205.58 235.852C1200.56 230.925 1193.77 228.153 1186.68 228.145H808.038Z" fill="#2D3142"/>
</g>
<path id="cloud-right" d="M1070.24 298.345C1064.8 298.341 1059.44 299.578 1054.56 301.959C1049.69 304.341 1045.45 307.801 1042.17 312.068C1038.65 310.578 1034.81 309.972 1030.99 310.302C1027.17 310.633 1023.49 311.891 1020.29 313.962C1017.09 316.034 1014.46 318.855 1012.64 322.171C1010.82 325.488 1009.87 329.197 1009.87 332.965H1105.46C1105.46 328.419 1104.55 323.917 1102.78 319.717C1101.01 315.516 1098.42 311.7 1095.15 308.485C1091.88 305.27 1087.99 302.72 1083.72 300.98C1079.45 299.24 1074.87 298.345 1070.24 298.345Z" fill="#E6E6E6"/>
<path id="cloud-left" d="M994.97 356.153C988.258 356.148 981.635 357.674 975.624 360.612C969.614 363.55 964.379 367.82 960.331 373.084C955.987 371.246 951.247 370.498 946.536 370.906C941.824 371.314 937.29 372.865 933.34 375.421C929.389 377.977 926.146 381.457 923.902 385.549C921.657 389.642 920.482 394.217 920.48 398.866H1038.42C1038.42 393.257 1037.3 387.703 1035.12 382.521C1032.93 377.338 1029.73 372.63 1025.7 368.663C1021.66 364.697 1016.87 361.551 1011.6 359.404C1006.33 357.258 1000.68 356.153 994.97 356.153V356.153Z" fill="#CCCCCC"/>
</g>
</g>
<defs>
<clipPath id="clip0">
<rect width="1083.87" height="826.84" fill="white" transform="translate(33 168)"/>
</clipPath>
</defs>
</svg>
