<svg width="746" height="728" viewBox="0 0 746 728" fill="none" xmlns="http://www.w3.org/2000/svg">
<style>
    #messages g {
        opacity: 0;
        /* forwards means apply style from the last keyframe once animation ends */
        animation: MessageDropIn 7s forwards infinite;
        animation-delay: calc(var(--order) * 400ms);
    }
    
    @keyframes MessageDropIn {
        10% {
            opacity: 0;
            transform: translateY(-20%);
        }
        40%,
        100% {
            opacity: 1;
            transform: translateY(0%);
        }
    }
</style>
<g id="phone-graphic" clip-path="url(#clip0)">
<g id="phone">
<path id="Vector" d="M506.56 172.947H502.561V63.4019C502.561 46.5867 495.882 30.4602 483.992 18.57C472.101 6.67985 455.975 2.12175e-05 439.16 2.27928e-10H207.073C198.747 -2.23245e-05 190.502 1.6399 182.81 4.82612C175.118 8.01234 168.128 12.6825 162.241 18.5699C156.354 24.4573 151.683 31.4466 148.497 39.1389C145.311 46.8311 143.671 55.0757 143.671 63.4017V664.376C143.671 672.702 145.311 680.947 148.497 688.639C151.683 696.331 156.353 703.321 162.241 709.208C168.128 715.095 175.118 719.766 182.81 722.952C190.502 726.138 198.747 727.778 207.073 727.778H439.159C455.975 727.778 472.101 721.098 483.991 709.208C495.881 697.318 502.561 681.191 502.561 664.376V250.923H506.56L506.56 172.947Z" fill="#2D3142"/>
<path id="Vector_2" d="M441.718 16.495H411.423C412.816 19.9106 413.348 23.6165 412.972 27.2861C412.595 30.9557 411.322 34.4764 409.265 37.538C407.207 40.5997 404.428 43.1084 401.173 44.8431C397.917 46.5778 394.285 47.4852 390.596 47.4855H257.637C253.948 47.4853 250.316 46.5778 247.06 44.8431C243.804 43.1084 241.026 40.5998 238.968 37.5381C236.91 34.4764 235.637 30.9557 235.261 27.2861C234.884 23.6165 235.416 19.9106 236.809 16.495H208.514C195.956 16.495 183.913 21.4834 175.034 30.3628C166.154 39.2422 161.166 51.2853 161.166 63.8427V663.935C161.166 670.153 162.391 676.31 164.77 682.055C167.15 687.799 170.637 693.019 175.034 697.415C179.43 701.812 184.65 705.3 190.395 707.679C196.139 710.058 202.296 711.283 208.514 711.283H441.718C447.936 711.283 454.093 710.058 459.837 707.679C465.582 705.3 470.801 701.812 475.198 697.415C479.595 693.019 483.082 687.799 485.462 682.055C487.841 676.31 489.066 670.153 489.066 663.935V663.935V63.8427C489.066 57.6249 487.841 51.468 485.462 45.7235C483.082 39.979 479.595 34.7594 475.198 30.3628C470.801 25.9662 465.582 22.4785 459.837 20.0991C454.093 17.7197 447.936 16.495 441.718 16.495V16.495Z" fill="white"/>
</g>
<g id="messages">
<g id="message1" style="--order: 1">
<path id="Vector_3" d="M373.423 276.708C396.619 276.708 415.423 274.917 415.423 272.708C415.423 270.499 396.619 268.708 373.423 268.708C350.227 268.708 331.423 270.499 331.423 272.708C331.423 274.917 350.227 276.708 373.423 276.708Z" fill="#E6E6E6"/>
<path id="Vector_4" d="M745.563 99.868H358.911V226.799H373.557V259.997L406.754 226.799H745.563V99.868Z" fill="#8C1C13"/>
<path id="Vector_5" d="M577.767 142.852H401.946V148.187H577.767V142.852Z" fill="white"/>
<path id="Vector_6" d="M708.387 161.31H401.946V166.645H708.387V161.31Z" fill="white"/>
<path id="Vector_7" d="M708.087 179.768H401.946V185.103H708.087V179.768Z" fill="white"/>
</g>
<g id="message3" style="--order: 3">
<path id="Vector_8" d="M646.784 482.708H338.146V584.029H349.836V610.528L376.336 584.029H646.784V482.708Z" fill="#8C1C13"/>
<path id="Vector_9" d="M512.843 517.019H372.497V521.278H512.843V517.019Z" fill="white"/>
<path id="Vector_10" d="M617.109 531.753H372.497V536.012H617.109V531.753Z" fill="white"/>
<path id="Vector_11" d="M616.869 546.487H372.497V550.746H616.869V546.487Z" fill="white"/>
<path id="Vector_12" d="M349.729 623.868C368.245 623.868 383.255 622.438 383.255 620.675C383.255 618.911 368.245 617.482 349.729 617.482C331.213 617.482 316.203 618.911 316.203 620.675C316.203 622.438 331.213 623.868 349.729 623.868Z" fill="#E6E6E6"/>
</g>
<g id="message2" style="--order: 2">
<path id="Vector_13" d="M257.423 424.708C280.619 424.708 299.423 422.917 299.423 420.708C299.423 418.499 280.619 416.708 257.423 416.708C234.227 416.708 215.423 418.499 215.423 420.708C215.423 422.917 234.227 424.708 257.423 424.708Z" fill="#E6E6E6"/>
<path id="Vector_14" d="M0 298.894H271.907V388.157H261.607V411.502L238.262 388.157H0V298.894Z" fill="#8C1C13"/>
<path id="Vector_15" d="M151.846 328.435H28.2031V332.188H151.846V328.435Z" fill="white"/>
<path id="Vector_16" d="M243.702 341.416H28.2031V345.168H243.702V341.416Z" fill="white"/>
<path id="Vector_17" d="M243.491 354.396H28.2031V358.148H243.491V354.396Z" fill="white"/>
</g>
</g>
</g>
<defs>
<clipPath id="clip0">
<rect width="745.56" height="727.78" fill="white"/>
</clipPath>
</defs>
</svg>
