<svg width="490" height="420" viewBox="0 0 490 420" fill="none" xmlns="http://www.w3.org/2000/svg">
<g id="about-art-boxes">
<rect id="inner-box" width="437" height="367" fill="#76160F"/>
<g id="outer-box" filter="url(#filter0_d)">
<rect x="49" y="45" width="437" height="367" fill="#8C1C13"/>
</g>
<path id="text" d="M158.188 173H153.664V157.227H136.461V173H131.961V138.875H136.461V153.547H153.664V138.875H158.188V173ZM170.211 173H165.875V147.641H170.211V173ZM165.523 140.914C165.523 140.211 165.734 139.617 166.156 139.133C166.594 138.648 167.234 138.406 168.078 138.406C168.922 138.406 169.562 138.648 170 139.133C170.438 139.617 170.656 140.211 170.656 140.914C170.656 141.617 170.438 142.203 170 142.672C169.562 143.141 168.922 143.375 168.078 143.375C167.234 143.375 166.594 143.141 166.156 142.672C165.734 142.203 165.523 141.617 165.523 140.914ZM182.023 163.367H178.109L177.805 138.875H182.352L182.023 163.367ZM177.641 170.82C177.641 170.117 177.852 169.531 178.273 169.062C178.711 168.578 179.352 168.336 180.195 168.336C181.039 168.336 181.68 168.578 182.117 169.062C182.555 169.531 182.773 170.117 182.773 170.82C182.773 171.523 182.555 172.109 182.117 172.578C181.68 173.031 181.039 173.258 180.195 173.258C179.352 173.258 178.711 173.031 178.273 172.578C177.852 172.109 177.641 171.523 177.641 170.82ZM136.789 229H132.289V194.875H136.789V229ZM144.664 204.484L142.203 202.797C143.656 200.766 144.406 198.625 144.453 196.375V193H148.742V196.047C148.727 197.609 148.336 199.172 147.57 200.734C146.82 202.281 145.852 203.531 144.664 204.484ZM157.578 203.641L157.695 206.453C159.555 204.266 162.062 203.172 165.219 203.172C168.766 203.172 171.18 204.531 172.461 207.25C173.305 206.031 174.398 205.047 175.742 204.297C177.102 203.547 178.703 203.172 180.547 203.172C186.109 203.172 188.938 206.117 189.031 212.008V229H184.695V212.266C184.695 210.453 184.281 209.102 183.453 208.211C182.625 207.305 181.234 206.852 179.281 206.852C177.672 206.852 176.336 207.336 175.273 208.305C174.211 209.258 173.594 210.547 173.422 212.172V229H169.062V212.383C169.062 208.695 167.258 206.852 163.648 206.852C160.805 206.852 158.859 208.062 157.812 210.484V229H153.477V203.641H157.578ZM234.406 229H229.883L212.703 202.703V229H208.18V194.875H212.703L229.93 221.289V194.875H234.406V229ZM257.375 229C257.125 228.5 256.922 227.609 256.766 226.328C254.75 228.422 252.344 229.469 249.547 229.469C247.047 229.469 244.992 228.766 243.383 227.359C241.789 225.938 240.992 224.141 240.992 221.969C240.992 219.328 241.992 217.281 243.992 215.828C246.008 214.359 248.836 213.625 252.477 213.625H256.695V211.633C256.695 210.117 256.242 208.914 255.336 208.023C254.43 207.117 253.094 206.664 251.328 206.664C249.781 206.664 248.484 207.055 247.438 207.836C246.391 208.617 245.867 209.562 245.867 210.672H241.508C241.508 209.406 241.953 208.188 242.844 207.016C243.75 205.828 244.969 204.891 246.5 204.203C248.047 203.516 249.742 203.172 251.586 203.172C254.508 203.172 256.797 203.906 258.453 205.375C260.109 206.828 260.969 208.836 261.031 211.398V223.07C261.031 225.398 261.328 227.25 261.922 228.625V229H257.375ZM250.18 225.695C251.539 225.695 252.828 225.344 254.047 224.641C255.266 223.938 256.148 223.023 256.695 221.898V216.695H253.297C247.984 216.695 245.328 218.25 245.328 221.359C245.328 222.719 245.781 223.781 246.688 224.547C247.594 225.312 248.758 225.695 250.18 225.695ZM271.93 203.641L272.07 206.828C274.008 204.391 276.539 203.172 279.664 203.172C285.023 203.172 287.727 206.195 287.773 212.242V229H283.438V212.219C283.422 210.391 283 209.039 282.172 208.164C281.359 207.289 280.086 206.852 278.352 206.852C276.945 206.852 275.711 207.227 274.648 207.977C273.586 208.727 272.758 209.711 272.164 210.93V229H267.828V203.641H271.93ZM304.484 225.93C306.031 225.93 307.383 225.461 308.539 224.523C309.695 223.586 310.336 222.414 310.461 221.008H314.562C314.484 222.461 313.984 223.844 313.062 225.156C312.141 226.469 310.906 227.516 309.359 228.297C307.828 229.078 306.203 229.469 304.484 229.469C301.031 229.469 298.281 228.32 296.234 226.023C294.203 223.711 293.188 220.555 293.188 216.555V215.828C293.188 213.359 293.641 211.164 294.547 209.242C295.453 207.32 296.75 205.828 298.438 204.766C300.141 203.703 302.148 203.172 304.461 203.172C307.305 203.172 309.664 204.023 311.539 205.727C313.43 207.43 314.438 209.641 314.562 212.359H310.461C310.336 210.719 309.711 209.375 308.586 208.328C307.477 207.266 306.102 206.734 304.461 206.734C302.258 206.734 300.547 207.531 299.328 209.125C298.125 210.703 297.523 212.992 297.523 215.992V216.812C297.523 219.734 298.125 221.984 299.328 223.562C300.531 225.141 302.25 225.93 304.484 225.93ZM327.734 222.648L333.641 203.641H338.281L328.086 232.914C326.508 237.133 324 239.242 320.562 239.242L319.742 239.172L318.125 238.867V235.352L319.297 235.445C320.766 235.445 321.906 235.148 322.719 234.555C323.547 233.961 324.227 232.875 324.758 231.297L325.719 228.719L316.672 203.641H321.406L327.734 222.648ZM339.5 235.797L337.039 234.109C338.508 232.062 339.273 229.953 339.336 227.781V223.867H343.578V227.266C343.578 228.844 343.188 230.422 342.406 232C341.641 233.578 340.672 234.844 339.5 235.797ZM157.062 274.172C156.641 277.781 155.305 280.57 153.055 282.539C150.82 284.492 147.844 285.469 144.125 285.469C140.094 285.469 136.859 284.023 134.422 281.133C132 278.242 130.789 274.375 130.789 269.531V266.25C130.789 263.078 131.352 260.289 132.477 257.883C133.617 255.477 135.227 253.633 137.305 252.352C139.383 251.055 141.789 250.406 144.523 250.406C148.148 250.406 151.055 251.422 153.242 253.453C155.43 255.469 156.703 258.266 157.062 261.844H152.539C152.148 259.125 151.297 257.156 149.984 255.938C148.688 254.719 146.867 254.109 144.523 254.109C141.648 254.109 139.391 255.172 137.75 257.297C136.125 259.422 135.312 262.445 135.312 266.367V269.672C135.312 273.375 136.086 276.32 137.633 278.508C139.18 280.695 141.344 281.789 144.125 281.789C146.625 281.789 148.539 281.227 149.867 280.102C151.211 278.961 152.102 276.984 152.539 274.172H157.062ZM173.281 269.789C169.422 268.68 166.609 267.32 164.844 265.711C163.094 264.086 162.219 262.086 162.219 259.711C162.219 257.023 163.289 254.805 165.43 253.055C167.586 251.289 170.383 250.406 173.82 250.406C176.164 250.406 178.25 250.859 180.078 251.766C181.922 252.672 183.344 253.922 184.344 255.516C185.359 257.109 185.867 258.852 185.867 260.742H181.344C181.344 258.68 180.688 257.062 179.375 255.891C178.062 254.703 176.211 254.109 173.82 254.109C171.602 254.109 169.867 254.602 168.617 255.586C167.383 256.555 166.766 257.906 166.766 259.641C166.766 261.031 167.352 262.211 168.523 263.18C169.711 264.133 171.719 265.008 174.547 265.805C177.391 266.602 179.609 267.484 181.203 268.453C182.812 269.406 184 270.523 184.766 271.805C185.547 273.086 185.938 274.594 185.938 276.328C185.938 279.094 184.859 281.312 182.703 282.984C180.547 284.641 177.664 285.469 174.055 285.469C171.711 285.469 169.523 285.023 167.492 284.133C165.461 283.227 163.891 281.992 162.781 280.43C161.688 278.867 161.141 277.094 161.141 275.109H165.664C165.664 277.172 166.422 278.805 167.938 280.008C169.469 281.195 171.508 281.789 174.055 281.789C176.43 281.789 178.25 281.305 179.516 280.336C180.781 279.367 181.414 278.047 181.414 276.375C181.414 274.703 180.828 273.414 179.656 272.508C178.484 271.586 176.359 270.68 173.281 269.789ZM213.688 269.789C209.828 268.68 207.016 267.32 205.25 265.711C203.5 264.086 202.625 262.086 202.625 259.711C202.625 257.023 203.695 254.805 205.836 253.055C207.992 251.289 210.789 250.406 214.227 250.406C216.57 250.406 218.656 250.859 220.484 251.766C222.328 252.672 223.75 253.922 224.75 255.516C225.766 257.109 226.273 258.852 226.273 260.742H221.75C221.75 258.68 221.094 257.062 219.781 255.891C218.469 254.703 216.617 254.109 214.227 254.109C212.008 254.109 210.273 254.602 209.023 255.586C207.789 256.555 207.172 257.906 207.172 259.641C207.172 261.031 207.758 262.211 208.93 263.18C210.117 264.133 212.125 265.008 214.953 265.805C217.797 266.602 220.016 267.484 221.609 268.453C223.219 269.406 224.406 270.523 225.172 271.805C225.953 273.086 226.344 274.594 226.344 276.328C226.344 279.094 225.266 281.312 223.109 282.984C220.953 284.641 218.07 285.469 214.461 285.469C212.117 285.469 209.93 285.023 207.898 284.133C205.867 283.227 204.297 281.992 203.188 280.43C202.094 278.867 201.547 277.094 201.547 275.109H206.07C206.07 277.172 206.828 278.805 208.344 280.008C209.875 281.195 211.914 281.789 214.461 281.789C216.836 281.789 218.656 281.305 219.922 280.336C221.188 279.367 221.82 278.047 221.82 276.375C221.82 274.703 221.234 273.414 220.062 272.508C218.891 271.586 216.766 270.68 213.688 269.789ZM237.336 253.5V259.641H242.07V262.992H237.336V278.719C237.336 279.734 237.547 280.5 237.969 281.016C238.391 281.516 239.109 281.766 240.125 281.766C240.625 281.766 241.312 281.672 242.188 281.484V285C241.047 285.312 239.938 285.469 238.859 285.469C236.922 285.469 235.461 284.883 234.477 283.711C233.492 282.539 233 280.875 233 278.719V262.992H228.383V259.641H233V253.5H237.336ZM262.812 282.492C261.125 284.477 258.648 285.469 255.383 285.469C252.68 285.469 250.617 284.688 249.195 283.125C247.789 281.547 247.078 279.219 247.062 276.141V259.641H251.398V276.023C251.398 279.867 252.961 281.789 256.086 281.789C259.398 281.789 261.602 280.555 262.695 278.086V259.641H267.031V285H262.906L262.812 282.492ZM272.586 272.109C272.586 268.219 273.508 265.094 275.352 262.734C277.195 260.359 279.609 259.172 282.594 259.172C285.562 259.172 287.914 260.188 289.648 262.219V249H293.984V285H290L289.789 282.281C288.055 284.406 285.641 285.469 282.547 285.469C279.609 285.469 277.211 284.266 275.352 281.859C273.508 279.453 272.586 276.312 272.586 272.438V272.109ZM276.922 272.602C276.922 275.477 277.516 277.727 278.703 279.352C279.891 280.977 281.531 281.789 283.625 281.789C286.375 281.789 288.383 280.555 289.648 278.086V266.438C288.352 264.047 286.359 262.852 283.672 262.852C281.547 262.852 279.891 263.672 278.703 265.312C277.516 266.953 276.922 269.383 276.922 272.602ZM311.258 285.469C307.82 285.469 305.023 284.344 302.867 282.094C300.711 279.828 299.633 276.805 299.633 273.023V272.227C299.633 269.711 300.109 267.469 301.062 265.5C302.031 263.516 303.375 261.969 305.094 260.859C306.828 259.734 308.703 259.172 310.719 259.172C314.016 259.172 316.578 260.258 318.406 262.43C320.234 264.602 321.148 267.711 321.148 271.758V273.562H303.969C304.031 276.062 304.758 278.086 306.148 279.633C307.555 281.164 309.336 281.93 311.492 281.93C313.023 281.93 314.32 281.617 315.383 280.992C316.445 280.367 317.375 279.539 318.172 278.508L320.82 280.57C318.695 283.836 315.508 285.469 311.258 285.469ZM310.719 262.734C308.969 262.734 307.5 263.375 306.312 264.656C305.125 265.922 304.391 267.703 304.109 270H316.812V269.672C316.688 267.469 316.094 265.766 315.031 264.562C313.969 263.344 312.531 262.734 310.719 262.734ZM330.289 259.641L330.43 262.828C332.367 260.391 334.898 259.172 338.023 259.172C343.383 259.172 346.086 262.195 346.133 268.242V285H341.797V268.219C341.781 266.391 341.359 265.039 340.531 264.164C339.719 263.289 338.445 262.852 336.711 262.852C335.305 262.852 334.07 263.227 333.008 263.977C331.945 264.727 331.117 265.711 330.523 266.93V285H326.188V259.641H330.289ZM358.555 253.5V259.641H363.289V262.992H358.555V278.719C358.555 279.734 358.766 280.5 359.188 281.016C359.609 281.516 360.328 281.766 361.344 281.766C361.844 281.766 362.531 281.672 363.406 281.484V285C362.266 285.312 361.156 285.469 360.078 285.469C358.141 285.469 356.68 284.883 355.695 283.711C354.711 282.539 354.219 280.875 354.219 278.719V262.992H349.602V259.641H354.219V253.5H358.555Z" fill="#FFF8E8"/>
</g>
<defs>
<filter id="filter0_d" x="45" y="45" width="445" height="375" filterUnits="userSpaceOnUse" color-interpolation-filters="sRGB">
<feFlood flood-opacity="0" result="BackgroundImageFix"/>
<feColorMatrix in="SourceAlpha" type="matrix" values="0 0 0 0 0 0 0 0 0 0 0 0 0 0 0 0 0 0 127 0"/>
<feOffset dy="4"/>
<feGaussianBlur stdDeviation="2"/>
<feColorMatrix type="matrix" values="0 0 0 0 0 0 0 0 0 0 0 0 0 0 0 0 0 0 0.25 0"/>
<feBlend mode="normal" in2="BackgroundImageFix" result="effect1_dropShadow"/>
<feBlend mode="normal" in="SourceGraphic" in2="effect1_dropShadow" result="shape"/>
</filter>
</defs>
</svg>
